<svg xmlns="http://www.w3.org/2000/svg">

  <symbol id="facebook" viewBox="0 0 12 22">
    <title>facebook</title>
    <path d="M8.83169 0C5.69558 0 3.54784 1.82202 3.54784 5.16926V8.054H0V11.9663H3.54784V22H7.78878V11.9663H11.3267L11.8581 8.054H7.78878V5.55578C7.78878 4.4234 8.11969 3.65148 9.8251 3.65148H12V0.153977C11.6238 0.106313 10.3339 0 8.83169 0Z" />
  </symbol>

  <symbol id="instagram" viewBox="0 0 23 24">
    <title>instagram</title>
    <path d="M6.6571 0C2.98565 0 0 3.12481 0 6.96524V17.0365C0 20.8769 2.98565 24 6.6571 24H16.3429C20.0143 24 23 20.8769 23 17.0365V6.96524C23 3.12481 20.0143 0 16.3429 0H6.6571ZM6.6571 2.06322H16.3429C18.9559 2.06322 21.0292 4.23197 21.0292 6.96524V17.0365C21.0292 19.7698 18.9559 21.9368 16.3429 21.9368H6.6571C4.04408 21.9368 1.97241 19.7698 1.97241 17.0365V6.96524C1.97241 4.23197 4.04408 2.06322 6.6571 2.06322ZM17.6727 4.12641C16.9107 4.12641 16.2934 4.77212 16.2934 5.56909C16.2934 6.36609 16.9107 7.01178 17.6727 7.01178C18.4346 7.01178 19.0519 6.36609 19.0519 5.56909C19.0519 4.77212 18.4346 4.12641 17.6727 4.12641ZM11.5 5.82073C8.24893 5.82073 5.59264 8.5993 5.59264 12C5.59264 15.4007 8.24893 18.1793 11.5 18.1793C14.7511 18.1793 17.409 15.4007 17.409 12C17.409 8.5993 14.7511 5.82073 11.5 5.82073ZM11.5 7.88395C13.6853 7.88395 15.4366 9.71415 15.4366 12C15.4366 14.2859 13.6853 16.1161 11.5 16.1161C9.31472 16.1161 7.56504 14.2859 7.56504 12C7.56504 9.71415 9.31472 7.88395 11.5 7.88395Z" />
  </symbol>

  <symbol id="twitter" viewBox="0 0 22 18">
    <title>twitter</title>
    <path d="M22 2.13046C21.191 2.49194 20.321 2.73626 19.4081 2.84633C20.3398 2.28369 21.0552 1.39321 21.3922 0.332343C20.5202 0.853289 19.5546 1.23115 18.526 1.43483C17.7032 0.551897 16.5301 0 15.232 0C12.7393 0 10.7189 2.03437 10.7189 4.54398C10.7189 4.90027 10.7584 5.24719 10.8357 5.57956C7.0846 5.39031 3.75901 3.58068 1.53295 0.831733C1.14443 1.50256 0.921886 2.28304 0.921886 3.11596C0.921886 4.6927 1.71835 6.08333 2.92973 6.89853C2.18992 6.87525 1.49391 6.67074 0.885376 6.33014C0.88451 6.34929 0.884504 6.36818 0.884504 6.38718C0.884504 8.58925 2.44044 10.4254 4.50492 10.8432C4.12653 10.947 3.7279 11.002 3.31624 11.002C3.02512 11.002 2.74286 10.9742 2.46681 10.921C3.04153 12.7262 4.70801 14.0402 6.68333 14.0769C5.13742 15.2959 3.19166 16.022 1.07697 16.022C0.712916 16.022 0.353368 16.0004 0 15.9587C1.99818 17.248 4.37022 18 6.91929 18C15.2207 18 19.7597 11.076 19.7597 5.07064C19.7597 4.87371 19.7552 4.67813 19.747 4.48326C20.6285 3.84206 21.3936 3.04194 21.999 2.13049" />
  </symbol>

</svg>